<svg aria-hidden="true" style="position: absolute; width: 0; height: 0; overflow: hidden;" version="1.1" xmlns="http://www.w3.org/2000/svg" xmlns:xlink="http://www.w3.org/1999/xlink">
<defs>
<symbol id="icon-Back_arrow" viewBox="0 0 32 32">
<path d="M23.776 0.843c0.239 0.265 0.431 0.58 0.561 0.926 0.125 0.325 0.198 0.701 0.198 1.093s-0.073 0.769-0.205 1.115l0.007-0.021c-0.13 0.348-0.32 0.661-0.561 0.928l-10.059 11.117 10.057 11.119c0.484 0.538 0.755 1.263 0.755 2.022 0 0.757-0.271 1.485-0.755 2.020-0.449 0.508-1.101 0.829-1.827 0.836h-0.001c-0.685 0-1.344-0.301-1.826-0.836l-11.895-13.152c-0.236-0.261-0.426-0.57-0.554-0.908l-0.007-0.020c-0.125-0.325-0.198-0.701-0.198-1.093s0.073-0.769 0.205-1.115l-0.007 0.021c0.13-0.348 0.32-0.661 0.561-0.928l11.898-13.154c0.983-1.088 2.643-1.088 3.654 0.030z"></path>
</symbol>
<symbol id="icon-Burger_menu" viewBox="0 0 32 32">
<path stroke-linejoin="round" stroke-linecap="round" stroke-miterlimit="4" stroke-width="2.8571" d="M2.286 16h27.429M2.286 6.857h27.429M2.286 25.143h18.286"></path>
</symbol>
<symbol id="icon-Clock" viewBox="0 0 32 32">
<path stroke-linejoin="round" stroke-linecap="round" stroke-miterlimit="4" stroke-width="2.88" d="M16 29.333c7.364 0 13.333-5.969 13.333-13.333s-5.969-13.333-13.333-13.333v0c-7.364 0-13.333 5.969-13.333 13.333s5.969 13.333 13.333 13.333v0z"></path>
<path stroke-linejoin="round" stroke-linecap="round" stroke-miterlimit="4" stroke-width="2.88" d="M16 8v8l5.333 2.667"></path>
</symbol>
<symbol id="icon-Down_arrow" viewBox="0 0 32 32">
<path stroke-linejoin="round" stroke-linecap="round" stroke-miterlimit="4" stroke-width="5.3333" d="M29.333 10.328l-13.333 13.333-13.333-13.333"></path>
</symbol>
<symbol id="icon-Email" viewBox="0 0 32 32">
<path stroke-linejoin="round" stroke-linecap="round" stroke-miterlimit="4" stroke-width="2.9091" d="M1.455 8.727l11.876 8.313c0.961 0.673 1.443 1.011 1.965 1.14 0.211 0.055 0.454 0.086 0.704 0.086s0.493-0.032 0.724-0.091l-0.020 0.004c0.524-0.131 1.004-0.465 1.965-1.14l11.876-8.313M8.436 27.636h15.127c2.444 0 3.665 0 4.599-0.476 0.825-0.426 1.48-1.082 1.895-1.883l0.011-0.024c0.476-0.934 0.476-2.156 0.476-4.599v-9.309c0-2.444 0-3.665-0.476-4.599-0.426-0.825-1.082-1.481-1.883-1.895l-0.024-0.011c-0.934-0.476-2.156-0.476-4.599-0.476h-15.127c-2.444 0-3.665 0-4.599 0.476-0.825 0.426-1.481 1.082-1.895 1.883l-0.011 0.024c-0.476 0.934-0.476 2.156-0.476 4.599v9.309c0 2.444 0 3.665 0.476 4.599 0.426 0.825 1.082 1.48 1.883 1.895l0.024 0.011c0.934 0.476 2.156 0.476 4.599 0.476z"></path>
</symbol>
<symbol id="icon-Exit" viewBox="0 0 32 32">
<path stroke-linejoin="round" stroke-linecap="round" stroke-miterlimit="4" stroke-width="4" d="M29.332 2.666l-26.666 26.668M2.666 2.666l26.666 26.668"></path>
</symbol>
<symbol id="icon-Facebook" viewBox="0 0 32 32">
<path d="M31.238 16.091c0-8.465-6.824-15.33-15.238-15.33s-15.238 6.865-15.238 15.33c0 7.653 5.571 13.995 12.858 15.147v-10.712h-3.87v-4.434h3.87v-3.377c0-3.842 2.275-5.966 5.755-5.966 1.667 0 3.412 0.3 3.412 0.3v3.773h-1.923c-1.893 0-2.484 1.181-2.484 2.395v2.874h4.226l-0.675 4.434h-3.55v10.712c7.288-1.15 12.858-7.493 12.858-15.147z"></path>
</symbol>
<symbol id="icon-Front_arrow" viewBox="0 0 32 32">
<path d="M8.224 0.843c-0.236 0.261-0.426 0.568-0.554 0.906l-0.007 0.020c-0.125 0.325-0.198 0.701-0.198 1.093s0.073 0.769 0.205 1.115l-0.007-0.021c0.13 0.348 0.32 0.661 0.561 0.928l10.059 11.117-10.059 11.121c-0.469 0.529-0.755 1.23-0.755 1.997 0 0.009 0 0.018 0 0.026v-0.001c0 0.757 0.271 1.485 0.755 2.020 0.484 0.533 1.143 0.836 1.828 0.836s1.344-0.301 1.826-0.836l11.898-13.154c0.239-0.267 0.431-0.58 0.561-0.928 0.125-0.325 0.198-0.701 0.198-1.093s-0.073-0.769-0.205-1.115l0.007 0.021c-0.135-0.358-0.325-0.667-0.563-0.931l0.002 0.003-11.898-13.154c-0.983-1.088-2.641-1.088-3.654 0.030z"></path>
</symbol>
<symbol id="icon-Instagram" viewBox="0 0 32 32">
<path d="M22.348 3.302c3.502 0.010 6.339 2.846 6.351 6.347v12.699c-0.010 3.504-2.848 6.341-6.35 6.351h-12.699c-3.502-0.012-6.338-2.849-6.348-6.35v-12.699c0.012-3.501 2.847-6.336 6.347-6.348h12.699zM22.348 0.762h-12.698c-4.888 0-8.888 4-8.888 8.888v12.698c0 4.89 4 8.89 8.888 8.89h12.698c4.89 0 8.89-4 8.89-8.89v-12.698c0-4.888-4-8.888-8.89-8.888z"></path>
<path d="M24.253 9.653c-1.052 0-1.905-0.853-1.905-1.905s0.853-1.905 1.905-1.905v0c1.052 0 1.905 0.853 1.905 1.905s-0.853 1.905-1.905 1.905v0zM16 10.923c0.026-0.001 0.057-0.001 0.088-0.001 2.806 0 5.080 2.275 5.080 5.080s-2.275 5.080-5.080 5.080c-0.031 0-0.062-0-0.093-0.001l0.005 0c-2.768-0.049-4.992-2.305-4.992-5.080s2.225-5.030 4.988-5.080l0.005-0zM16 8.384c-4.208 0-7.619 3.411-7.619 7.619s3.411 7.619 7.619 7.619v0c4.208 0 7.619-3.411 7.619-7.619s-3.411-7.619-7.619-7.619v0z"></path>
</symbol>
<symbol id="icon-Password" viewBox="0 0 32 32">
<path stroke-linejoin="round" stroke-linecap="round" stroke-miterlimit="4" stroke-width="3.0476" d="M23.619 14.476v-4.571c0-4.208-3.411-7.619-7.619-7.619s-7.619 3.411-7.619 7.619v0 4.571M9.6 29.714h12.8c2.56 0 3.84 0 4.818-0.498 0.864-0.447 1.551-1.134 1.986-1.972l0.012-0.025c0.498-0.978 0.498-2.258 0.498-4.818v-0.61c0-2.56 0-3.84-0.498-4.818-0.447-0.864-1.134-1.551-1.972-1.986l-0.025-0.012c-0.978-0.498-2.258-0.498-4.818-0.498h-12.8c-2.56 0-3.84 0-4.818 0.498-0.864 0.447-1.551 1.134-1.986 1.972l-0.012 0.025c-0.498 0.978-0.498 2.258-0.498 4.818v0.61c0 2.56 0 3.84 0.498 4.818 0.447 0.864 1.134 1.551 1.972 1.986l0.025 0.012c0.978 0.498 2.258 0.498 4.818 0.498z"></path>
</symbol>
<symbol id="icon-Pencil" viewBox="0 0 32 32">
<path stroke-linejoin="round" stroke-linecap="round" stroke-miterlimit="4" stroke-width="2.9714" d="M3.717 25.216c0.105-0.944 0.16-1.417 0.302-1.858 0.139-0.423 0.319-0.79 0.543-1.125l-0.011 0.017c0.256-0.389 0.592-0.725 1.264-1.397l16.853-16.853c0.682-0.682 1.625-1.104 2.666-1.104s1.984 0.422 2.666 1.104v0c0.682 0.682 1.104 1.625 1.104 2.666s-0.422 1.984-1.104 2.666l-16.853 16.853c-0.672 0.674-1.008 1.010-1.394 1.264-0.32 0.213-0.687 0.394-1.079 0.523l-0.032 0.009c-0.441 0.144-0.914 0.197-1.858 0.302l-3.451 0.384 0.384-3.451z"></path>
</symbol>
<symbol id="icon-minus" viewBox="0 0 14 14" >
<path d="M2.1875 7H11.8125" stroke-width="1.5" stroke-linecap="round" stroke-linejoin="round"/>
</symbol>
<symbol id="icon-plus" viewBox="0 0 32 32">
<path stroke-linejoin="round" stroke-linecap="round" stroke-miterlimit="4" stroke-width="3.5556" d="M16 6.667v18.667"></path>
<path stroke-linejoin="round" stroke-linecap="round" stroke-miterlimit="4" stroke-width="3.5556" d="M6.667 16h18.667"></path>
</symbol>
<symbol id="icon-Recipe_avatar" viewBox="0 0 32 32">
<path stroke-linejoin="round" stroke-linecap="round" stroke-miterlimit="4" stroke-width="0.5" d="M28.191 11.428v-4.58c0 0 0 0 0 0 0-1.68-1.359-3.042-3.038-3.047l-4.581-0.014M28.191 20.572v4.572c0 1.683-1.364 3.047-3.047 3.047v0h-4.572M11.428 3.787l-4.58 0.015c-1.68 0.005-3.039 1.367-3.039 3.047 0 0 0 0.001 0 0.001v-0 4.579M11.428 28.191h-4.572c-1.683-0-3.047-1.365-3.047-3.047v-4.572"></path>
<path d="M16 18.75c0.625 0 1.157-0.218 1.594-0.656s0.656-0.969 0.656-1.594c0-0.625-0.218-1.156-0.656-1.594s-0.969-0.656-1.594-0.656c-0.625 0-1.156 0.219-1.594 0.656s-0.656 0.969-0.656 1.594c0 0.625 0.219 1.157 0.656 1.594s0.969 0.656 1.594 0.656zM12 20.5c-0.275 0-0.51-0.098-0.706-0.294-0.181-0.175-0.294-0.421-0.294-0.693 0-0.005 0-0.009 0-0.014v0.001-6c0-0.275 0.098-0.51 0.294-0.706 0.175-0.181 0.42-0.294 0.692-0.294 0.005 0 0.010 0 0.015 0h1.574l0.925-1h3l0.925 1h1.575c0.275 0 0.511 0.098 0.706 0.294s0.294 0.431 0.294 0.706v6c0 0.275-0.098 0.511-0.294 0.706-0.175 0.181-0.421 0.294-0.693 0.294-0.005 0-0.010-0-0.015-0h-7.999z"></path>
</symbol>
<symbol id="icon-search" viewBox="0 0 32 32">
<path stroke-linejoin="round" stroke-linecap="round" stroke-miterlimit="4" stroke-width="2.6667" d="M14.667 25.333c5.891 0 10.667-4.776 10.667-10.667s-4.776-10.667-10.667-10.667v0c-5.891 0-10.667 4.776-10.667 10.667s4.776 10.667 10.667 10.667v0zM28 28l-5.8-5.8"></path>
</symbol>
<symbol id="icon-See_recipe_arrow" viewBox="0 0 32 32">
<path stroke-linejoin="round" stroke-linecap="round" stroke-miterlimit="4" stroke-width="3.2" d="M3.2 16h25.6M28.8 16l-9.6-9.6M28.8 16l-9.6 9.6"></path>
</symbol>
<symbol id="icon-So_yummy" viewBox="0 0 32 32">
<path d="M9.6 0h12.8c5.302 0 9.6 4.298 9.6 9.6v12.8c0 5.302-4.298 9.6-9.6 9.6h-12.8c-5.302 0-9.6-4.298-9.6-9.6v-12.8c0-5.302 4.298-9.6 9.6-9.6z"></path>
<path stroke-linejoin="round" stroke-linecap="round" stroke-miterlimit="4" stroke-width="1.6" d="M7.039 7.117v4.072c0 1.162 0.507 2.192 1.294 2.858 0.384 0.326 0.638 0.766 0.638 1.254v6.797c0 0.756 0.65 1.369 1.45 1.369s1.45-0.613 1.45-1.368v-6.798c0-0.488 0.254-0.928 0.638-1.254 0.787-0.666 1.294-1.695 1.294-2.858v0M10.42 11.603v-4.563M23.466 8c0-0.504-0.432-0.913-0.966-0.913h-0.966c-1.602 0-2.899 1.226-2.899 2.738v5.476c0 1.19 0.808 2.193 1.933 2.57v4.227c0 0.756 0.649 1.369 1.449 1.369s1.45-0.613 1.45-1.368v-14.098z"></path>
</symbol>
<symbol id="icon-Trash" viewBox="0 0 32 32">
<path stroke-linejoin="round" stroke-linecap="round" stroke-miterlimit="4" stroke-width="2.9091" d="M21.818 7.273v-1.164c0-1.629 0-2.444-0.317-3.066-0.284-0.55-0.721-0.987-1.255-1.264l-0.016-0.008c-0.623-0.317-1.437-0.317-3.066-0.317h-2.327c-1.629 0-2.444 0-3.066 0.317-0.55 0.284-0.987 0.721-1.264 1.255l-0.008 0.016c-0.317 0.623-0.317 1.437-0.317 3.066v1.164M13.091 15.273v7.273M18.909 15.273v7.273M2.909 7.273h26.182M26.182 7.273v16.291c0 2.444 0 3.665-0.476 4.599-0.426 0.825-1.082 1.48-1.883 1.895l-0.024 0.011c-0.934 0.476-2.156 0.476-4.599 0.476h-6.4c-2.444 0-3.665 0-4.599-0.476-0.825-0.426-1.481-1.082-1.895-1.883l-0.011-0.024c-0.476-0.934-0.476-2.156-0.476-4.599v-16.291"></path>
</symbol>
<symbol id="icon-Twitter" viewBox="0 0 32 32">
<path d="M32 6.234c-1.2 0.522-2.47 0.864-3.77 1.019 1.353-0.803 2.374-2.045 2.875-3.527l0.013-0.046c-1.201 0.716-2.599 1.26-4.087 1.554l-0.084 0.014c-1.206-1.263-2.902-2.048-4.782-2.048-0.003 0-0.007 0-0.010 0h0.001c-3.627 0-6.565 2.893-6.565 6.459-0.003 0.496 0.054 0.992 0.17 1.474-5.453-0.263-10.26-2.821-13.51-6.722l-0.024-0.030c-0.56 0.928-0.891 2.048-0.893 3.246v0c0 2.24 1.168 4.219 2.934 5.379-1.1-0.026-2.125-0.322-3.020-0.823l0.033 0.017v0.080c0 3.133 2.266 5.739 5.267 6.333-0.519 0.144-1.114 0.227-1.729 0.227h-0c-0.416 0-0.829-0.040-1.235-0.12 0.835 2.566 3.262 4.432 6.138 4.486-2.223 1.727-5.052 2.769-8.126 2.769-0.562 0-1.116-0.035-1.659-0.102l0.065 0.007c2.829 1.831 6.287 2.92 9.999 2.92 0.017 0 0.035-0 0.052-0h-0.003c12.093 0 18.698-9.846 18.698-18.387 0-0.28-0.008-0.56-0.021-0.832 1.289-0.925 2.375-2.034 3.246-3.304l0.029-0.045z"></path>
</symbol>
<symbol id="icon-user_avatar" viewBox="0 0 32 32">
<path stroke-linejoin="round" stroke-linecap="round" stroke-miterlimit="4" stroke-width="2.7234" d="M26.667 28v-2.667c-0-2.945-2.388-5.333-5.334-5.333h-10.666c-2.945 0-5.333 2.388-5.333 5.333v2.667M16 14.667c2.946 0 5.333-2.388 5.333-5.333s-2.388-5.333-5.333-5.333v0c-2.946 0-5.333 2.388-5.333 5.333s2.388 5.333 5.333 5.333v0z"></path>
</symbol>
<symbol id="icon-user" viewBox="0 0 32 32">
<path stroke-linejoin="round" stroke-linecap="round" stroke-miterlimit="4" stroke-width="3.0476" d="M28.19 29.714c0-2.127 0-3.189-0.262-4.055-0.605-1.952-2.112-3.459-4.021-4.052l-0.043-0.012c-0.866-0.262-1.928-0.262-4.055-0.262h-7.619c-2.127 0-3.189 0-4.055 0.262-1.952 0.605-3.459 2.112-4.052 4.021l-0.012 0.043c-0.262 0.866-0.262 1.928-0.262 4.055M22.857 9.143c0 3.787-3.070 6.857-6.857 6.857s-6.857-3.070-6.857-6.857v0c0-3.787 3.070-6.857 6.857-6.857s6.857 3.070 6.857 6.857v0z"></path>
</symbol>
<symbol id="icon-Youtube" viewBox="0 0 32 32">
<path d="M31.795 9.299c0-2.813-2.070-5.075-4.627-5.075-3.015-0.143-6.549-0.225-10.102-0.225-0.175 0-0.351 0-0.526 0.001l0.027-0h-1.126c-3.6 0-7.139 0.064-10.602 0.224-2.55 0-4.619 2.277-4.619 5.088-0.157 2.224-0.224 4.45-0.219 6.675-0.006 2.224 0.064 4.451 0.213 6.68 0 2.813 2.069 5.094 4.619 5.094 3.638 0.168 7.37 0.243 11.165 0.237 3.8 0.013 7.52-0.067 11.163-0.237 2.557 0 4.626-2.282 4.626-5.094 0.136-1.908 0.213-4.135 0.213-6.38 0-0.108-0-0.216-0.001-0.324l0 0.017c0.001-0.172 0.002-0.376 0.002-0.579 0-2.147-0.074-4.276-0.221-6.385l0.016 0.284zM12.939 22.117v-12.28l9.064 6.138-9.064 6.144z"></path>
</symbol>
<symbol id="camera" viewBox="0 0 64 64" fill="none">
<path d="M56.381 22.8571V13.696C56.3811 12.0826 55.7414 10.535 54.6023 9.39244C53.4631 8.24988 51.9175 7.60557 50.3041 7.60073L41.143 7.5733M56.381 41.1428V50.2857C56.381 51.9022 55.7389 53.4526 54.5958 54.5957C53.4527 55.7387 51.9024 56.3809 50.2858 56.3809H41.143M22.8572 7.5733L13.6961 7.60378C12.0827 7.60862 10.5371 8.25293 9.39792 9.39549C8.2588 10.538 7.61913 12.0856 7.61914 13.699V22.8571M22.8572 56.3809H13.7144C12.0978 56.3809 10.5475 55.7387 9.40439 54.5957C8.26132 53.4526 7.61914 51.9022 7.61914 50.2857V41.1428" stroke="#FAFAFA" stroke-linecap="round" stroke-linejoin="round"/>
<path d="M32 37.5C33.25 37.5 34.3127 37.0627 35.188 36.188C36.0627 35.3127 36.5 34.25 36.5 33C36.5 31.75 36.0627 30.6873 35.188 29.812C34.3127 28.9373 33.25 28.5 32 28.5C30.75 28.5 29.6873 28.9373 28.812 29.812C27.9373 30.6873 27.5 31.75 27.5 33C27.5 34.25 27.9373 35.3127 28.812 36.188C29.6873 37.0627 30.75 37.5 32 37.5ZM24 41C23.45 41 22.9793 40.8043 22.588 40.413C22.196 40.021 22 39.55 22 39V27C22 26.45 22.196 25.9793 22.588 25.588C22.9793 25.196 23.45 25 24 25H27.15L29 23H35L36.85 25H40C40.55 25 41.021 25.196 41.413 25.588C41.8043 25.9793 42 26.45 42 27V39C42 39.55 41.8043 40.021 41.413 40.413C41.021 40.8043 40.55 41 40 41H24Z" stroke="#FAFAFA" />
</symbol>
<symbol id="cross"  viewBox="0 0 24 24" fill="none">
<path d="M18.75 5.25L5.25 18.75"  stroke-width="2" stroke-linecap="round" stroke-linejoin="round"/>
<path d="M18.75 18.75L5.25 5.25"  stroke-width="2" stroke-linecap="round" stroke-linejoin="round"/>
</symbol>
</defs>
</svg>
